PathFileType	4	(X/Y/Z)	Kaydara	
DataRate	CameraRate	NumFrames	NumMarkers	Units	OrigDataRate	OrigDataStartFrame	OrigNumFrames	
60.00	60.00	4	74	mm	60.00	610	227	
Frame#	Time	N_lasi			N_rasi			N_rpsi			N_lpsi			N_fneck			N_bneck			N_fhead			N_rhead			N_lhead			N_rshld			N_relbtop			N_relbext			N_relblow			N_rwrext			N_rwrtop			N_rwrlow			N_lshld			N_lelbext			N_lelbtop			N_lwrext			N_lwrtop			N_lwrlow			N_rtopleg			N_ltopleg			N_rkneefr			N_rkneebk			N_rkneeis			N_lkneefr			N_lknssbk			N_lkneeis			N_rankfr			N_rankis			N_rankbk			N_lankfr			N_lankbk			N_lankis			Z_lasi			Z_rasi			Z_rpsi			Z_lpsi			Z_fneck			Z_bneck			Z_fhead			Z_rhead			Z_lhead			Z_rshld			Z_relbtop			Z_relbext			Z_relblow			Z_rwrext			Z_rwrtop			Z_rwrlow			Z_lshld			Z_lelbext			Z_lelblow			Z_lelbtop			Z_lwrext			Z_lwrtop			Z_lwrlow			Z_rtopleg			Z_ltopleg			Z_rkneefr			Z_rkneebk			Z_rkneeis			Z_lkneefr			Z_lknssbk			Z_lkneeis			Z_rankfr			Z_rankis			Z_lankfr			Z_lankbk			Z_lankis			N_lelblow			Z_rankbk			
		X1	Y1	Z1	X2	Y2	Z2	X3	Y3	Z3	X4	Y4	Z4	X5	Y5	Z5	X6	Y6	Z6	X7	Y7	Z7	X8	Y8	Z8	X9	Y9	Z9	X10	Y10	Z10	X11	Y11	Z11	X12	Y12	Z12	X13	Y13	Z13	X14	Y14	Z14	X15	Y15	Z15	X16	Y16	Z16	X17	Y17	Z17	X18	Y18	Z18	X19	Y19	Z19	X20	Y20	Z20	X21	Y21	Z21	X22	Y22	Z22	X23	Y23	Z23	X24	Y24	Z24	X25	Y25	Z25	X26	Y26	Z26	X27	Y27	Z27	X28	Y28	Z28	X29	Y29	Z29	X30	Y30	Z30	X31	Y31	Z31	X32	Y32	Z32	X33	Y33	Z33	X34	Y34	Z34	X35	Y35	Z35	X36	Y36	Z36	X37	Y37	Z37	X38	Y38	Z38	X39	Y39	Z39	X40	Y40	Z40	X41	Y41	Z41	X42	Y42	Z42	X43	Y43	Z43	X44	Y44	Z44	X45	Y45	Z45	X46	Y46	Z46	X47	Y47	Z47	X48	Y48	Z48	X49	Y49	Z49	X50	Y50	Z50	X51	Y51	Z51	X52	Y52	Z52	X53	Y53	Z53	X54	Y54	Z54	X55	Y55	Z55	X56	Y56	Z56	X57	Y57	Z57	X58	Y58	Z58	X59	Y59	Z59	X60	Y60	Z60	X61	Y61	Z61	X62	Y62	Z62	X63	Y63	Z63	X64	Y64	Z64	X65	Y65	Z65	X66	Y66	Z66	X67	Y67	Z67	X68	Y68	Z68	X69	Y69	Z69	X70	Y70	Z70	X71	Y71	Z71	X72	Y72	Z72	X73	Y73	Z73	X74	Y74	Z74	

86	10.150	-746.17081	1007.52785	-971.85539	-781.10397	1009.34135	-1199.84863	-538.50025	1076.57852	-1220.87387	-528.91052	1056.98990	-976.85501	-785.22156	1465.50186	-1037.96181	-668.61130	1548.58170	-1066.05797	-880.14900	1652.63092	-940.20271	-792.49352	1676.66885	-1093.51883	-711.17882	1670.91461	-959.19632	-735.11497	1457.57111	-1278.83865	-666.96922	1171.52939	-1389.85474	-642.70630	1151.65405	-1314.80377	-731.27846	1169.13635	-1353.98529	-748.43483	928.70667	-1436.74713	-797.10648	944.25911	-1438.44330	-811.71829	938.40378	-1395.12970	-648.03284	1427.99286	-847.63145	-661.43127	1108.45413	-834.81873	-567.83489	1159.70360	-782.19696	-534.79046	905.44624	-742.18613	-564.30534	910.34294	-698.54279	-607.15569	899.72389	-720.70953	-608.71056	886.24619	-1313.51105	-663.07121	881.88187	-905.83740	-563.41564	437.47246	-1241.50955	-477.76245	522.64637	-1255.46738	-507.68593	488.09502	-1147.83493	-887.96310	499.92210	-1053.52600	-799.45389	490.76729	-987.63176	-787.69997	488.18932	-1110.40421	-348.88226	209.19289	-1233.65036	-314.21707	240.40754	-1175.86594	-294.30813	242.81494	-1255.28641	-943.04024	179.79511	-1039.70535	-868.54034	166.68278	-1100.03525	-936.49155	194.56102	-1109.96994	-65.24062	1007.79472	676.10825	105.55305	1002.57019	842.98798	-50.94270	1067.34337	963.19748	-183.44963	1065.03555	824.42978	63.51255	1447.45209	714.86099	-0.32506	1529.27460	779.56825	188.63909	1565.33188	646.52550	98.88735	1640.43396	798.03879	22.86132	1636.98349	692.01866	153.18044	1392.34863	956.32248	141.22965	1100.89310	1046.23367	105.40964	1088.17467	986.14212	201.47022	1121.44020	990.16693	223.81941	856.81358	992.32956	262.09555	866.79565	969.80804	240.96867	877.23038	929.39980	-144.91147	1431.09467	638.96564	-187.78288	1111.73050	703.57849	-216.77380	1135.90576	617.93999	-259.45944	1116.11954	686.21475	-236.56445	905.44083	598.57983	-213.15020	916.49429	564.55341	-172.86795	913.73329	586.81561	64.97793	898.70575	960.94231	-159.38646	935.83961	686.41426	63.37226	425.76054	876.78452	36.92572	460.52235	957.89108	-30.89331	452.47704	862.13509	14.55635	458.75122	587.32979	-71.11948	476.51283	598.93066	2.13481	474.06494	695.23857	-3.80347	171.83620	918.21785	-84.36243	181.40263	913.94958	2.02743	203.83467	666.17867	-73.87303	197.20646	646.36597	-57.55409	201.59031	711.48956	-631.79890	1129.96155	-822.72331	-53.19913	174.72067	977.60719 
87	10.167	-768.12645	1010.72922	-968.93608	-804.21791	1010.97145	-1196.29982	-562.25830	1077.58362	-1218.56247	-552.36717	1060.01411	-973.30444	-805.68306	1468.05878	-1032.46521	-687.75780	1549.97055	-1059.02046	-898.86810	1654.52164	-933.64128	-811.60042	1678.99155	-1086.92497	-730.10139	1672.40417	-952.71706	-754.28513	1461.38992	-1273.27492	-686.52061	1174.25064	-1383.26920	-662.30515	1154.42123	-1308.31879	-750.92651	1172.04552	-1347.52533	-768.00438	931.42281	-1429.67636	-816.61179	946.97426	-1431.64505	-831.23032	941.10352	-1388.24081	-671.26892	1425.43915	-841.63506	-686.06155	1103.96385	-835.38124	-592.92770	1154.90974	-781.77780	-555.04284	900.09476	-751.08231	-585.15434	902.67654	-707.33696	-627.48417	892.03117	-729.52797	-633.32916	885.85014	-1310.50018	-685.89844	884.74770	-902.79633	-594.56127	435.13756	-1247.02690	-510.43423	522.52605	-1259.03381	-540.05367	486.56200	-1152.60422	-909.97070	500.83637	-1052.67799	-822.84851	493.99033	-984.30771	-808.92006	489.92714	-1107.50427	-371.19705	214.99622	-1238.86772	-338.72616	246.98484	-1180.32753	-317.72974	251.17538	-1258.90083	-954.69460	177.33906	-1039.61823	-879.08600	165.88511	-1098.33519	-947.32491	191.91452	-1109.63242	-57.32503	1006.14136	669.45618	115.91054	1002.01416	833.32481	-39.90721	1067.37053	956.08871	-174.17425	1063.99223	818.94981	71.71341	1446.45386	705.14740	8.63936	1528.13095	770.86525	195.68945	1564.71375	635.30376	107.73997	1639.14139	788.34160	30.69322	1635.86075	682.99835	164.42667	1391.74454	945.57709	154.85669	1100.21011	1035.45654	118.53333	1087.30354	975.65437	214.26464	1121.22131	978.73306	238.22002	856.00563	978.40424	276.01736	867.12646	956.11740	254.64928	877.93411	915.96680	-137.67489	1429.85428	631.77803	-179.57516	1110.50415	697.40425	-209.04795	1134.45190	611.75488	-251.17052	1114.63371	680.34103	-228.18129	904.06265	592.58270	-204.76797	915.03212	558.54931	-164.60279	912.31331	581.02142	75.97840	899.14551	954.58656	-150.94836	933.74207	681.44814	66.64603	425.13214	873.26080	41.22248	460.55279	954.31763	-27.26061	452.75261	858.84392	25.15088	456.82980	582.46326	-60.56580	470.58029	595.63122	12.32370	468.05687	691.55685	-2.45176	171.84612	916.38702	-82.95072	182.25706	912.37930	27.04574	199.73560	643.24715	-48.37585	189.71783	623.92323	-31.83084	190.42006	688.95012	-655.96649	1125.77499	-824.26765	-51.60754	176.12280	976.18797 
88	10.183	-789.43176	1013.81081	-965.20767	-826.98151	1012.74384	-1191.30676	-585.81409	1078.77243	-1216.12976	-574.15398	1064.75342	-971.30760	-825.68314	1470.96298	-1027.34848	-706.34262	1551.47110	-1052.52945	-917.27600	1656.83640	-927.77588	-829.87221	1681.46866	-1080.76263	-748.50258	1674.23874	-946.53305	-772.95647	1465.55603	-1267.93297	-705.78346	1177.45125	-1377.25479	-681.57982	1157.58080	-1302.26364	-770.21477	1175.26070	-1341.35269	-787.78191	934.70169	-1422.88422	-836.30074	950.19081	-1424.54773	-850.61073	944.44153	-1381.14166	-694.22890	1423.46161	-835.79086	-711.34544	1100.03555	-836.57486	-619.17343	1150.49561	-781.50513	-577.19837	895.79376	-758.96927	-607.34886	896.10329	-715.44991	-649.35516	885.49919	-739.14436	-658.33267	885.15121	-1307.14203	-706.44470	887.83066	-899.75372	-628.86856	432.85801	-1252.44286	-545.49236	521.59210	-1263.06023	-576.17958	483.93158	-1156.45882	-931.33896	501.51901	-1050.99380	-844.87640	497.14405	-981.44691	-829.07730	492.72045	-1103.26401	-396.36780	220.91614	-1243.28194	-366.20583	253.38900	-1184.07234	-344.22695	259.30307	-1262.33398	-964.24347	175.56175	-1038.70537	-887.15836	166.65981	-1095.76347	-956.41640	190.07910	-1107.88567	-49.17331	1003.79120	662.42416	127.21249	1001.03760	822.22458	-29.51612	1066.57448	948.59413	-165.15818	1062.04887	812.82524	79.65781	1444.79294	695.00763	17.10572	1526.50726	761.50452	202.34892	1563.52859	623.60916	116.37576	1637.51816	777.55943	37.96494	1634.13193	673.68813	175.46875	1390.65826	934.28360	168.05964	1098.74146	1024.30862	131.13985	1085.98175	964.62425	226.66836	1120.41519	966.82205	252.01546	855.32852	964.46159	289.69278	866.85707	941.99707	267.82787	877.88429	901.97823	-130.54852	1427.75879	624.23809	-171.52771	1108.46657	690.44052	-201.64480	1132.28294	605.16445	-243.20772	1112.40051	674.04747	-220.27508	901.97189	586.00277	-196.67309	912.89307	552.00844	-156.67556	910.10071	574.73682	86.61216	898.58665	946.96800	-142.45028	930.63347	676.09451	69.76914	424.10904	869.40269	45.02257	460.40142	950.46722	-24.09708	452.60654	855.10025	35.50059	453.68584	578.44120	-49.84237	463.94306	592.35233	22.78642	461.10115	687.89619	-1.49023	171.59269	914.45847	-81.83743	182.62518	910.38155	51.03197	197.15366	620.53085	-23.85471	184.59515	602.13982	-6.06645	181.69460	666.23451	-680.28877	1122.33253	-826.92749	-50.60395	176.19339	974.19907 
89	10.200	-810.37125	1016.34262	-960.60814	-849.11522	1014.32854	-1185.51880	-608.63739	1079.47952	-1213.49792	-594.99622	1068.11546	-969.61945	-844.06433	1473.56674	-1022.30728	-724.38889	1552.82501	-1046.52931	-934.81461	1659.32892	-922.47978	-847.16263	1684.07166	-1075.44785	-765.91225	1676.04965	-941.08803	-791.13083	1469.57123	-1262.98378	-724.78287	1180.71304	-1372.03888	-700.54375	1160.82726	-1296.84830	-789.14513	1178.58803	-1335.66177	-807.88536	938.10349	-1416.45172	-856.37253	953.65585	-1417.42142	-869.52385	947.97684	-1373.58185	-716.75385	1422.19635	-830.57289	-736.64627	1096.87698	-838.51639	-645.75417	1146.77750	-781.53053	-601.23615	892.17400	-765.84930	-633.14342	890.46715	-723.31398	-673.97293	879.97437	-748.94180	-683.13797	884.15039	-1303.37585	-725.38635	890.03510	-897.33994	-664.87183	431.31676	-1257.05200	-581.66298	520.36915	-1266.97617	-613.70689	480.82134	-1159.92531	-951.42914	501.95011	-1049.70505	-865.71182	499.71359	-978.89572	-848.02971	495.25440	-1100.18112	-423.24463	227.70571	-1247.02171	-395.93784	260.30996	-1186.90208	-372.97157	267.67365	-1265.27100	-971.91360	174.20536	-1037.90443	-894.07410	168.13251	-1093.70865	-964.21707	188.68214	-1106.71738	-40.96158	1000.72426	654.88853	132.89556	998.56674	818.82683	-19.48869	1064.85001	940.58487	-156.26454	1059.53598	805.97374	87.38810	1442.44171	684.52034	25.29727	1524.25385	751.56723	208.77937	1561.75690	611.60652	125.09231	1635.06439	766.82800	45.04783	1631.81534	663.84361	185.89470	1388.94043	922.77832	180.86250	1096.70128	1012.39609	143.38541	1084.02023	953.23921	238.63781	1119.03893	954.50699	265.37888	854.36974	950.35477	302.99866	866.07475	927.20741	280.56747	877.23709	887.44904	-123.29864	1424.93591	615.82539	-163.86047	1105.77087	683.14308	-194.48154	1129.33006	597.96074	-235.58306	1109.51218	667.12662	-212.59781	899.13483	579.17381	-189.04385	909.99580	545.02728	-149.21880	907.27676	567.83806	96.98485	897.60086	939.09683	-134.00427	926.72859	670.46577	72.83707	422.80155	865.66246	48.19512	459.79500	946.16409	-20.58716	451.96590	850.74783	46.26508	450.87463	574.35619	-39.04471	457.14710	589.05418	35.31377	452.53956	682.83798	-0.75886	171.28799	912.74399	-80.95806	182.90062	908.08014	73.86402	196.23545	598.55305	-0.59177	181.39288	580.43282	18.81309	174.88714	643.79456	-704.30969	1119.73312	-830.78506	-50.04633	176.99442	972.20932 
